<?xml version="1.0" encoding="ISO-8859-1" standalone="yes"?>
<!DOCTYPE svg PUBLIC "-//W3C//DTD SVG 20010904//EN"
  "http://www.w3.org/TR/2001/REC-SVG-20010904/DTD/svg10.dtd">
<svg width="16.0795cm" height="18.2953cm" viewBox="280.9531 1024.9609 2278.9844 2593.0313" version="1.0"
    xmlns="http://www.w3.org/2000/svg"
    xmlns:xlink="http://www.w3.org/1999/xlink">
<desc>
  Exported by the ArtWorks SVGExport module.
  Source document: SCSI::Develop.$.Develop.Web.Input.cm.Pages.crypto.philips.px1000.artwork.px1000_nsa_flow
</desc>
<g transform="matrix(1 0 0 -1 0 4642.9531)" stroke-miterlimit="16" fill-rule="evenodd" clip-rule="evenodd" stroke-linejoin="bevel" stroke-linecap="butt">
<path d="M2019.6016 1842.4453 2161.3281 1842.4453 2161.3281 1771.5859" stroke="#000000" stroke-width="5" stroke-linejoin="miter" fill="none"/>
<path d="M1736.1484 2161.3281 2373.9219 2161.3281 2373.9219 1771.5859" stroke="#000000" stroke-width="5" stroke-linejoin="miter" fill="none"/>
<path transform="matrix(-0.0833 0 0 -0.0833 1736.1484 2161.3281)" stroke="none" fill="#000000" d="M-90 -180 360 0 -90 180 0 0 -90 -180 Z"/>
<path d="M1736.1484 2055.0391 2303.0547 2055.0391 2303.0547 1771.5859" stroke="#000000" stroke-width="5" stroke-linejoin="miter" fill="none"/>
<path transform="matrix(-0.0833 0 0 -0.0833 1736.1484 2055.0391)" stroke="none" fill="#000000" d="M-90 -180 360 0 -90 180 0 0 -90 -180 Z"/>
<path d="M1736.1484 1948.7422 2232.1953 1948.7422 2232.1953 1771.5859" stroke="#000000" stroke-width="5" stroke-linejoin="miter" fill="none"/>
<path transform="matrix(-0.0833 0 0 -0.0833 1736.1484 1948.7422)" stroke="none" fill="#000000" d="M-90 -180 360 0 -90 180 0 0 -90 -180 Z"/>
<path d="M389.75 2976.2578 389.75 2763.6719 885.7891 2763.6719 885.7891 2976.2578" stroke="#000000" stroke-width="5" stroke-linejoin="miter" fill="none"/>
<path d="M1877.875 2976.2578 1877.875 2621.9453 2373.9219 2621.9453 2373.9219 2976.2578" stroke="#000000" stroke-width="5" stroke-linejoin="miter" fill="none"/>
<path d="M1807.0156 2976.2578 1807.0156 2692.8047 2303.0547 2692.8047 2303.0547 2976.2578" stroke="#000000" stroke-width="5" stroke-linejoin="miter" fill="none"/>
<path d="M1736.1484 2976.2578 1736.1484 2763.6719 2232.1953 2763.6719 2232.1953 2976.2578" stroke="#000000" stroke-width="5" stroke-linejoin="miter" fill="none"/>
<path d="M1665.2891 2976.2578 1665.2891 2834.5313 2161.3281 2834.5313 2161.3281 2976.2578" stroke="#000000" stroke-width="5" stroke-linejoin="miter" fill="none"/>
<rect x="283.4531" y="3401.4375" width="1133.8125" height="141.7266" stroke="#000000" stroke-width="5" stroke-linejoin="miter" fill="#ffffb3"/>
<rect x="1629.8594" y="2976.2578" width="70.8594" height="566.9063" stroke="#000000" stroke-width="5" stroke-linejoin="miter" fill="#d1ebff"/>
<rect x="1700.7188" y="2976.2578" width="70.8672" height="566.9063" stroke="#000000" stroke-width="5" stroke-linejoin="miter" fill="#d1ebff"/>
<rect x="1771.5859" y="2976.2578" width="70.8672" height="566.9063" stroke="#000000" stroke-width="5" stroke-linejoin="miter" fill="#d1ebff"/>
<rect x="1842.4453" y="2976.2578" width="70.875" height="566.9063" stroke="#000000" stroke-width="5" stroke-linejoin="miter" fill="#d1ebff"/>
<rect x="1931.0313" y="2338.4844" width="106.2969" height="141.7266" stroke="#000000" stroke-width="5" stroke-linejoin="miter" fill="#ffffb3"/>
<rect x="2037.3281" y="2338.4844" width="106.2969" height="141.7266" stroke="#000000" stroke-width="5" stroke-linejoin="miter" fill="#ffffb3"/>
<rect x="2143.625" y="2338.4844" width="106.2891" height="141.7266" stroke="#000000" stroke-width="5" stroke-linejoin="miter" fill="#ffffb3"/>
<rect x="2249.9141" y="2338.4844" width="106.2969" height="141.7266" stroke="#000000" stroke-width="5" stroke-linejoin="miter" fill="#ffffb3"/>
<path d="M1984.1719 2515.6484 1984.1797 2799.1016" stroke="#000000" stroke-width="5" stroke-linejoin="miter" fill="none"/>
<path transform="matrix(-0 -0.0833 0.0833 -0 1984.1719 2515.6484)" stroke="none" fill="#000000" d="M-90 -180 360 0 -90 180 0 0 -90 -180 Z"/>
<circle cx="1984.1797" cy="2834.5313" r="35.4297" stroke="#000000" stroke-width="5" stroke-linejoin="miter" fill="#ffc2c2"/>
<path d="M1984.1797 2852.25 1984.1797 2816.8203" stroke="#000000" stroke-width="10" stroke-linejoin="miter" fill="none"/>
<path d="M1966.4609 2834.5313 2001.8984 2834.5313" stroke="#000000" stroke-width="10" stroke-linejoin="miter" fill="none"/>
<path d="M2090.4688 2515.6484 2090.4688 2728.2344" stroke="#000000" stroke-width="5" stroke-linejoin="miter" fill="none"/>
<path transform="matrix(0 -0.0833 0.0833 0 2090.4688 2515.6484)" stroke="none" fill="#000000" d="M-90 -180 360 0 -90 180 0 0 -90 -180 Z"/>
<circle cx="2090.4688" cy="2763.6641" r="35.4297" stroke="#000000" stroke-width="5" stroke-linejoin="miter" fill="#ffc2c2"/>
<path d="M2090.4688 2781.3828 2090.4688 2745.9531" stroke="#000000" stroke-width="10" stroke-linejoin="miter" fill="none"/>
<path d="M2072.75 2763.6641 2108.1875 2763.6641" stroke="#000000" stroke-width="10" stroke-linejoin="miter" fill="none"/>
<path d="M2196.7656 2515.6484 2196.7656 2657.375" stroke="#000000" stroke-width="5" stroke-linejoin="miter" fill="none"/>
<path transform="matrix(0 -0.0833 0.0833 0 2196.7656 2515.6484)" stroke="none" fill="#000000" d="M-90 -180 360 0 -90 180 0 0 -90 -180 Z"/>
<circle cx="2196.7656" cy="2692.8047" r="35.4297" stroke="#000000" stroke-width="5" stroke-linejoin="miter" fill="#ffc2c2"/>
<path d="M2196.7656 2710.5234 2196.7656 2675.0938" stroke="#000000" stroke-width="10" stroke-linejoin="miter" fill="none"/>
<path d="M2179.0469 2692.8047 2214.4844 2692.8047" stroke="#000000" stroke-width="10" stroke-linejoin="miter" fill="none"/>
<path d="M2303.0547 2515.6484 2303.0625 2586.5156" stroke="#000000" stroke-width="5" stroke-linejoin="miter" fill="none"/>
<path transform="matrix(-0 -0.0833 0.0833 -0 2303.0547 2515.6484)" stroke="none" fill="#000000" d="M-90 -180 360 0 -90 180 0 0 -90 -180 Z"/>
<circle cx="2303.0625" cy="2621.9453" r="35.4297" stroke="#000000" stroke-width="5" stroke-linejoin="miter" fill="#ffc2c2"/>
<path d="M2303.0625 2639.6641 2303.0625 2604.2344" stroke="#000000" stroke-width="10" stroke-linejoin="miter" fill="none"/>
<path d="M2285.3438 2621.9453 2320.7813 2621.9453" stroke="#000000" stroke-width="10" stroke-linejoin="miter" fill="none"/>
<rect x="2125.8984" y="2976.2578" width="70.8594" height="566.9063" stroke="#000000" stroke-width="5" stroke-linejoin="miter" fill="#ffffb3"/>
<rect x="2196.7656" y="2976.2578" width="70.8594" height="566.9063" stroke="#000000" stroke-width="5" stroke-linejoin="miter" fill="#ffffb3"/>
<rect x="2267.625" y="2976.2578" width="70.8672" height="566.9063" stroke="#000000" stroke-width="5" stroke-linejoin="miter" fill="#ffffb3"/>
<rect x="2338.4922" y="2976.2578" width="70.8672" height="566.9063" stroke="#000000" stroke-width="5" stroke-linejoin="miter" fill="#ffffb3"/>
<path d="M1558.9922 1594.4219 1984.1719 1594.4219 1984.1719 2338.4766" stroke="#000000" stroke-width="5" stroke-linejoin="miter" fill="none"/>
<path transform="matrix(-0.0833 0 0 -0.0833 1558.9922 1594.4219)" stroke="none" fill="#000000" d="M-90 -180 360 0 -90 180 0 0 -90 -180 Z"/>
<circle cx="2303.0703" cy="2161.3125" r="35.4297" stroke="#000000" stroke-width="5" stroke-linejoin="miter" fill="#ffc2c2"/>
<path d="M2303.0703 2179.0313 2303.0703 2143.6016" stroke="#000000" stroke-width="10" stroke-linejoin="miter" fill="none"/>
<path d="M2285.3516 2161.3125 2320.7891 2161.3125" stroke="#000000" stroke-width="10" stroke-linejoin="miter" fill="none"/>
<path d="M2090.4688 1984.1719 2090.4766 2338.4844" stroke="#000000" stroke-width="5" stroke-linejoin="miter" fill="none"/>
<circle cx="2196.7656" cy="2055.0234" r="35.4297" stroke="#000000" stroke-width="5" stroke-linejoin="miter" fill="#ffc2c2"/>
<path d="M2196.7656 2072.7422 2196.7656 2037.3125" stroke="#000000" stroke-width="10" stroke-linejoin="miter" fill="none"/>
<path d="M2179.0469 2055.0234 2214.4844 2055.0234" stroke="#000000" stroke-width="10" stroke-linejoin="miter" fill="none"/>
<circle cx="2090.4688" cy="1948.7344" r="35.4297" stroke="#000000" stroke-width="5" stroke-linejoin="miter" fill="#ffc2c2"/>
<path d="M2090.4688 1966.4531 2090.4688 1931.0234" stroke="#000000" stroke-width="10" stroke-linejoin="miter" fill="none"/>
<path d="M2072.75 1948.7344 2108.1875 1948.7344" stroke="#000000" stroke-width="10" stroke-linejoin="miter" fill="none"/>
<circle cx="1984.1797" cy="1842.4375" r="35.4297" stroke="#000000" stroke-width="5" stroke-linejoin="miter" fill="#ffc2c2"/>
<path d="M1984.1797 1860.1563 1984.1797 1824.7266" stroke="#000000" stroke-width="10" stroke-linejoin="miter" fill="none"/>
<path d="M1966.4609 1842.4375 2001.8984 1842.4375" stroke="#000000" stroke-width="10" stroke-linejoin="miter" fill="none"/>
<path d="M2196.7656 2090.4688 2196.7656 2338.4844" stroke="#000000" stroke-width="5" stroke-linejoin="miter" fill="none"/>
<path d="M2303.0547 2196.7656 2303.0625 2338.4844" stroke="#000000" stroke-width="5" stroke-linejoin="miter" fill="none"/>
<circle cx="1488.125" cy="1594.4141" r="35.4297" stroke="#000000" stroke-width="5" stroke-linejoin="miter" fill="#ffc2c2"/>
<path d="M1488.125 1612.1328 1488.125 1576.7031" stroke="#000000" stroke-width="10" stroke-linejoin="miter" fill="none"/>
<path d="M1470.4063 1594.4141 1505.8438 1594.4141" stroke="#000000" stroke-width="10" stroke-linejoin="miter" fill="none"/>
<path d="M1488.1328 1842.4453 1488.1328 1665.2891" stroke="#000000" stroke-width="5" stroke-linejoin="miter" fill="none"/>
<path transform="matrix(0 -0.0833 0.0833 0 1488.1328 1665.2891)" stroke="none" fill="#000000" d="M-90 -180 360 0 -90 180 0 0 -90 -180 Z"/>
<path d="M1488.1328 1559 1488.1328 1381.8359" stroke="#000000" stroke-width="5" stroke-linejoin="miter" fill="none"/>
<path transform="matrix(0 -0.0833 0.0833 0 1488.1328 1381.8359)" stroke="none" fill="#000000" d="M-90 -180 360 0 -90 180 0 0 -90 -180 Z"/>
<path d="M318.8828 2976.2578 318.8828 2834.5313 814.9297 2834.5313 814.9297 2976.2578" stroke="#000000" stroke-width="5" stroke-linejoin="miter" fill="none"/>
<rect x="283.4531" y="3259.7188" width="1133.8125" height="141.7188" stroke="#000000" stroke-width="5" stroke-linejoin="miter" fill="#ffffb3"/>
<rect x="283.4531" y="3117.9844" width="1133.8125" height="141.7266" stroke="#000000" stroke-width="5" stroke-linejoin="miter" fill="#ffffb3"/>
<rect x="283.4531" y="2976.2578" width="1133.8125" height="141.7266" stroke="#000000" stroke-width="5" stroke-linejoin="miter" fill="#ffffb3"/>
<path d="M354.3203 3543.1641 354.3203 2976.2578" stroke="#000000" stroke-width="1.25" stroke-linejoin="miter" fill="none"/>
<path d="M425.1797 3543.1641 425.1797 2976.2578" stroke="#000000" stroke-width="1.25" stroke-linejoin="miter" fill="none"/>
<path d="M496.0469 3543.1641 496.0469 2976.2578" stroke="#000000" stroke-width="1.25" stroke-linejoin="miter" fill="none"/>
<path d="M566.9063 3259.7109 566.9063 2976.2578" stroke="#000000" stroke-width="1.25" stroke-linejoin="miter" fill="none"/>
<path d="M566.9063 3543.1641 566.9141 2976.2578" stroke="#000000" stroke-width="1.25" stroke-linejoin="miter" fill="none"/>
<path d="M637.7734 3543.1641 637.7734 2976.2578" stroke="#000000" stroke-width="1.25" stroke-linejoin="miter" fill="none"/>
<path d="M708.6328 3543.1641 708.6406 2976.2578" stroke="#000000" stroke-width="1.25" stroke-linejoin="miter" fill="none"/>
<path d="M779.5 3543.1641 779.5 2976.2578" stroke="#000000" stroke-width="1.25" stroke-linejoin="miter" fill="none"/>
<path d="M850.3594 3543.1641 850.3672 2976.2578" stroke="#000000" stroke-width="1.25" stroke-linejoin="miter" fill="none"/>
<path d="M921.2266 3543.1641 921.2266 2976.2578" stroke="#000000" stroke-width="1.25" stroke-linejoin="miter" fill="none"/>
<path d="M992.0859 3543.1641 992.0938 2976.2578" stroke="#000000" stroke-width="1.25" stroke-linejoin="miter" fill="none"/>
<path d="M1062.9531 3543.1641 1062.9531 2976.2578" stroke="#000000" stroke-width="1.25" stroke-linejoin="miter" fill="none"/>
<path d="M1133.8125 3543.1641 1133.8203 2976.2578" stroke="#000000" stroke-width="1.25" stroke-linejoin="miter" fill="none"/>
<path d="M1204.6797 3543.1641 1204.6797 2976.2578" stroke="#000000" stroke-width="1.25" stroke-linejoin="miter" fill="none"/>
<path d="M1275.5391 3543.1641 1275.5469 2976.2578" stroke="#000000" stroke-width="1.25" stroke-linejoin="miter" fill="none"/>
<path d="M1346.4063 3543.1641 1346.4063 2976.2578" stroke="#000000" stroke-width="1.25" stroke-linejoin="miter" fill="none"/>
<path d="M460.6172 2976.2578 460.6172 2692.8047 956.6563 2692.8047 956.6563 2976.2578" stroke="#000000" stroke-width="5" stroke-linejoin="miter" fill="none"/>
<path d="M531.4766 2976.2578 531.4766 2621.9453 1027.5156 2621.9453 1027.5156 2976.2578" stroke="#000000" stroke-width="5" stroke-linejoin="miter" fill="none"/>
<path d="M1417.2656 1594.4219 602.3359 1594.4219 602.3281 2799.1016" stroke="#000000" stroke-width="5" stroke-linejoin="miter" fill="none"/>
<path transform="matrix(0.0833 0 0 0.0833 1417.2656 1594.4219)" stroke="none" fill="#000000" d="M-90 -180 360 0 -90 180 0 0 -90 -180 Z"/>
<circle cx="602.3281" cy="2834.5313" r="35.4297" stroke="#000000" stroke-width="5" stroke-linejoin="miter" fill="#ffc2c2"/>
<path d="M602.3281 2852.25 602.3281 2816.8203" stroke="#000000" stroke-width="10" stroke-linejoin="miter" fill="none"/>
<path d="M584.6094 2834.5313 620.0469 2834.5313" stroke="#000000" stroke-width="10" stroke-linejoin="miter" fill="none"/>
<path d="M1240.1094 1948.7422 708.6328 1948.7422 708.6172 2728.2344" stroke="#000000" stroke-width="5" stroke-linejoin="miter" fill="none"/>
<path transform="matrix(0.0833 0 0 0.0833 1240.1094 1948.7422)" stroke="none" fill="#000000" d="M-90 -180 360 0 -90 180 0 0 -90 -180 Z"/>
<circle cx="708.6172" cy="2763.6641" r="35.4297" stroke="#000000" stroke-width="5" stroke-linejoin="miter" fill="#ffc2c2"/>
<path d="M708.6172 2781.3828 708.6172 2745.9531" stroke="#000000" stroke-width="10" stroke-linejoin="miter" fill="none"/>
<path d="M690.8984 2763.6641 726.3359 2763.6641" stroke="#000000" stroke-width="10" stroke-linejoin="miter" fill="none"/>
<path d="M1240.1094 2055.0391 814.9297 2055.0391 814.9141 2657.375" stroke="#000000" stroke-width="5" stroke-linejoin="miter" fill="none"/>
<path transform="matrix(0.0833 0 0 0.0833 1240.1094 2055.0391)" stroke="none" fill="#000000" d="M-90 -180 360 0 -90 180 0 0 -90 -180 Z"/>
<circle cx="814.9141" cy="2692.8047" r="35.4297" stroke="#000000" stroke-width="5" stroke-linejoin="miter" fill="#ffc2c2"/>
<path d="M814.9141 2710.5234 814.9141 2675.0938" stroke="#000000" stroke-width="10" stroke-linejoin="miter" fill="none"/>
<path d="M797.1953 2692.8047 832.6328 2692.8047" stroke="#000000" stroke-width="10" stroke-linejoin="miter" fill="none"/>
<path d="M1240.1094 2161.3281 921.2266 2161.3281 921.2109 2586.5156" stroke="#000000" stroke-width="5" stroke-linejoin="miter" fill="none"/>
<path transform="matrix(0.0833 0 0 0.0833 1240.1094 2161.3281)" stroke="none" fill="#000000" d="M-90 -180 360 0 -90 180 0 0 -90 -180 Z"/>
<circle cx="921.2109" cy="2621.9453" r="35.4297" stroke="#000000" stroke-width="5" stroke-linejoin="miter" fill="#ffc2c2"/>
<path d="M921.2109 2639.6641 921.2109 2604.2344" stroke="#000000" stroke-width="10" stroke-linejoin="miter" fill="none"/>
<path d="M903.4922 2621.9453 938.9297 2621.9453" stroke="#000000" stroke-width="10" stroke-linejoin="miter" fill="none"/>
<path d="M1948.7422 1062.9531 2551.0781 1062.9531 2551.0781 3259.7109 2480.2188 3259.7109" stroke="#000000" stroke-width="5" stroke-linejoin="miter" stroke-dasharray="24" fill="none"/>
<path transform="matrix(-0.0833 0 0 -0.0833 2480.2188 3259.7109)" stroke="none" fill="#000000" d="M-90 -180 360 0 -90 180 0 0 -90 -180 Z"/>
<path d="M2443.1563 3313.3516 C2438.6172 3298.4609 2435.9219 3279.8672 2435.9219 3259.7031 2435.9219 3210.7813 2451.7813 3171.125 2471.3516 3171.125 2483.3281 3171.125 2493.9141 3185.9766 2500.3203 3208.7109" stroke="#000000" stroke-width="2.5" stroke-linejoin="miter" fill="none"/>
<path transform="matrix(0.0151 0.0535 -0.0535 0.0151 2500.3203 3208.7109)" stroke="none" fill="#000000" d="M-90 -180 360 0 -90 180 0 0 -90 -180 Z"/>
<g>
<path d="M2485 3339.5 C2484.3984 3334.5938 2481.5938 3332.2969 2475.5938 3332.3984 L2475.5938 3328.5938 2483.5 3328.5938 2483.5 3304 2487.8984 3304 2487.8984 3339.5 2485 3339.5 Z" fill="#000000"/>
</g>
<rect x="1275.5391" y="1275.5391" width="425.1797" height="70.8516" stroke="#000000" stroke-width="5" stroke-linejoin="miter" fill="#ffffb3"/>
<circle cx="1488.125" cy="1062.9375" r="35.4297" stroke="#000000" stroke-width="5" stroke-linejoin="miter" fill="#ffc2c2"/>
<path d="M1488.125 1080.6563 1488.125 1045.2266" stroke="#000000" stroke-width="10" stroke-linejoin="miter" fill="none"/>
<path d="M1470.4063 1062.9375 1505.8438 1062.9375" stroke="#000000" stroke-width="10" stroke-linejoin="miter" fill="none"/>
<path d="M1488.1328 1275.5391 1488.1328 1133.8125" stroke="#000000" stroke-width="5" stroke-linejoin="miter" fill="none"/>
<path transform="matrix(0 -0.0833 0.0833 0 1488.1328 1133.8125)" stroke="none" fill="#000000" d="M-90 -180 360 0 -90 180 0 0 -90 -180 Z"/>
<path d="M1133.8125 1062.9531 1417.2656 1062.9531" stroke="#000000" stroke-width="5" stroke-linejoin="miter" fill="none"/>
<path transform="matrix(0.0833 0 0 0.0833 1417.2656 1062.9531)" stroke="none" fill="#000000" d="M-90 -180 360 0 -90 180 0 0 -90 -180 Z"/>
<path d="M1523.5625 1062.9531 1736.1484 1062.9531" stroke="#000000" stroke-width="5" stroke-linejoin="miter" fill="none"/>
<path transform="matrix(0.0833 0 0 0.0833 1736.1484 1062.9531)" stroke="none" fill="#000000" d="M-90 -180 360 0 -90 180 0 0 -90 -180 Z"/>
<g>
<path d="M1026.0938 1070.5 C1026.0938 1077 1020.5938 1077.3984 1019.1953 1077.2969 L1009.2969 1077.2969 1009.2969 1064.3984 1019.1953 1064.3984 C1021.3984 1064.3984 1026.0938 1065 1026.0938 1070.5 Z M1030.8984 1071 C1030.8984 1082.0938 1020.6953 1081.5 1019.1953 1081.5 L1004.5938 1081.5 1004.5938 1045 1009.2969 1045 1009.2969 1060.1953 1019.1953 1060.1953 C1023.5 1060.1953 1030.8984 1061 1030.8984 1071 Z" fill="#000000"/>
<path d="M1037.3984 1081.5 1037.3984 1045 1041.5938 1045 1041.5938 1081.5 1037.3984 1081.5 Z" fill="#000000"/>
<path d="M1047.6953 1063.3984 C1047.6953 1068.5 1051.6953 1072.1953 1058.0938 1072.1953 1063.1953 1072.1953 1068.3984 1070.3984 1068.3984 1066.0938 L1068.3984 1050.5 C1068.3984 1048.1953 1069.5 1047.6953 1071.2969 1047.7969 L1071.2969 1044.2969 C1067 1043.3984 1064.5938 1045 1064.1953 1047.6953 1061.7969 1045.6953 1059.6953 1044.1953 1055.0938 1043.9922 1047.1953 1043.5938 1044.6953 1051.5938 1047.8984 1056.6953 1051.3984 1062.2969 1064.2969 1058.0938 1064.1953 1063 L1064.1953 1064.8984 C1064.1953 1067 1061.7969 1068.3984 1057.5938 1068.3984 1054.6953 1068.3984 1051.6953 1066.7969 1051.6953 1063.3984 L1047.6953 1063.3984 Z M1064.1953 1058.0938 C1060.0938 1056 1053.2969 1057.2969 1051.2969 1054 1049.6953 1051.1953 1051.7969 1047.5 1055.6953 1047.6953 1059.0938 1047.7969 1062.8984 1049.5 1064.1953 1052.8984 L1064.1953 1058.0938 Z" fill="#000000"/>
<path d="M1076.3984 1081.5 1076.3984 1076 1080.5938 1076 1080.5938 1081.5 1076.3984 1081.5 Z M1076.3984 1045 1080.5938 1045 1080.5938 1071.2969 1076.3984 1071.2969 1076.3984 1045 Z" fill="#000000"/>
<path d="M1091.5938 1068.2969 C1093.2969 1069.8984 1096.0938 1072.2969 1099.7969 1072.1953 1103.7969 1072.1953 1108.1953 1069.7969 1108.1953 1064.7969 L1108.1953 1045 1104 1045 1104 1064 C1104 1066.7969 1102.2969 1068.2969 1098.8984 1068.2969 1093.2969 1068.2969 1091.5938 1063.3984 1091.5938 1063.3984 L1091.5938 1045 1087.3984 1045 1087.3984 1071.2969 1091.5938 1071.2969 1091.5938 1068.2969 Z" fill="#000000"/>
</g>
<g>
<path d="M1809.1953 1058.7969 1813.8984 1058.7969 C1812.6953 1052.5 1810.5 1049.5938 1807.7969 1047.3984 1801.5938 1042.3984 1792.0938 1043.2969 1787.3984 1048.5938 1779.0938 1058 1782.5938 1071.0938 1786.1953 1075.8984 1793.2969 1085.2969 1804.2969 1082.7969 1808.0938 1079.2969 1810.5938 1077 1812.1953 1074.6953 1813.2969 1070.0938 L1808.5 1070.0938 C1807.7969 1072.0938 1806.7969 1074 1805.3984 1075.5938 1801.5938 1079.6953 1793.5938 1078.8984 1790.0938 1073.7969 1787.0938 1069.3984 1785.2969 1058.6953 1790.7969 1051.7969 1793.3984 1048.5 1800.2969 1046.2969 1805.6953 1051.2969 1808.3984 1053.7969 1808.5 1057 1809.1953 1058.7969 Z" fill="#000000"/>
<path d="M1832 1072.1953 C1827.2969 1072.2969 1825.5 1070.5 1823.5938 1067.2969 L1823.5938 1071.2969 1819.3984 1071.2969 1819.3984 1045 1823.5938 1045 1823.5938 1061.0938 C1823.5938 1061.8984 1824.8984 1067.6953 1832 1067.0938 L1832 1072.1953 Z" fill="#000000"/>
<path d="M1835.3984 1038.3984 C1841.3984 1036.1953 1841.3984 1041.8984 1842.6953 1044.8984 L1834 1071.2969 1838.3984 1071.2969 1845.1953 1051.3984 1852.5 1071.2969 1856.8984 1071.2969 1844.5 1037.5938 C1842.8984 1033.2969 1838.1953 1033.6953 1835.3984 1034.4922 L1835.3984 1038.3984 Z" fill="#000000"/>
<path d="M1878.5 1051.2969 C1881.1953 1055.5 1880.6953 1061 1878.0938 1065.5 1876 1069.1953 1869.7969 1069.5 1867.5 1065.1953 1865.7969 1062.0938 1864 1056.8984 1867.5 1051 1869.2969 1047.8984 1875.0938 1046 1878.5 1051.2969 Z M1865.5938 1047.7969 C1870.7969 1041.1953 1879.1953 1044.3984 1881.6953 1047.7969 1887.0938 1055.0938 1884.6953 1064.5 1881.6953 1068.1953 1877.2969 1073.6953 1870.2969 1073.5 1865.5938 1068.1953 L1865.5938 1071.2969 1861.3984 1071.2969 1861.3984 1033.9922 1865.5938 1033.9922 1865.5938 1047.7969 Z" fill="#000000"/>
<path d="M1897.8984 1048.2969 1897.8984 1044.3984 C1888.1953 1042.3984 1889.3984 1048.1953 1889.3984 1050.0938 L1889.3984 1067.0938 1885.8984 1067.0938 1885.8984 1071.2969 1889.3984 1071.2969 1889.3984 1078.6953 1893.5938 1078.6953 1893.5938 1071.2969 1897.8984 1071.2969 1897.8984 1067.0938 1893.5938 1067.0938 1893.5938 1049.8984 C1893.5938 1047.5938 1896.0938 1048 1897.8984 1048.2969 Z" fill="#000000"/>
<path d="M1918.2969 1051.3984 C1916 1047 1908.8984 1047 1906.6953 1051.3984 1904.6953 1055.2969 1904.5938 1060.6953 1906.6953 1064.7969 1908.8984 1069.1953 1916 1069.1953 1918.2969 1064.7969 1920.1953 1061.1953 1920.1953 1055 1918.2969 1051.3984 Z M1903.7969 1068.2969 C1908.0938 1073.5 1916.5938 1073.5 1921.0938 1068.2969 1925.3984 1063 1925.3984 1053.1953 1921.0938 1047.8984 1916.5938 1042.6953 1908.0938 1042.6953 1903.7969 1047.8984 1899.5 1053.1953 1899.5 1063 1903.7969 1068.2969 Z" fill="#000000"/>
</g>
<g>
<path d="M1471.1953 1292 1471.1953 1328.5 1478.6953 1328.5 1478.6953 1312.7969 1493.5938 1328.5 1502.1953 1328.5 1487.5 1312.7969 1503.3984 1292 1494.8984 1292 1482.2969 1308 1478.6953 1304.1953 1478.6953 1292 1471.1953 1292 Z" fill="#000000"/>
</g>
<path d="M1338.0781 1238.5078 C1323.1875 1233.9688 1304.5938 1231.2734 1284.4297 1231.2734 1235.5078 1231.2734 1195.8516 1247.1328 1195.8516 1266.7031 1195.8516 1278.6797 1210.7031 1289.2656 1233.4375 1295.6719" stroke="#000000" stroke-width="2.5" stroke-linejoin="miter" fill="none"/>
<path transform="matrix(0.0535 0.0151 -0.0151 0.0535 1233.4375 1295.6719)" stroke="none" fill="#000000" d="M-90 -180 360 0 -90 180 0 0 -90 -180 Z"/>
<g>
<path d="M1010.0938 1338.5 1010.0938 1334.2969 1022 1334.2969 1022 1302 1026.6953 1302 1026.6953 1334.2969 1038.6953 1334.2969 1038.6953 1338.5 1010.0938 1338.5 Z" fill="#000000"/>
<path d="M1061.5938 1320 1061.5938 1302 1057.3984 1302 1057.3984 1328.2969 1061.5938 1328.2969 1061.5938 1325.8984 C1066 1330.6953 1073.5 1330.0938 1076.2969 1325.3984 1081.5 1331.8984 1092 1329.5 1092 1322.3984 L1092 1302 1087.7969 1302 1087.7969 1321.5938 C1087.7969 1325.0938 1084.8984 1325.8984 1082.7969 1325.8984 1078.0938 1325.8984 1076.7969 1320.6953 1076.7969 1320 L1076.7969 1302 1072.5938 1302 1072.5938 1321.7969 C1072.5938 1324.5 1070.7969 1325.8984 1068 1325.8984 1062.5938 1325.8984 1061.5938 1320.5938 1061.5938 1320 Z" fill="#000000"/>
<path d="M1114.2969 1308.3984 C1112 1304 1104.8984 1304 1102.6953 1308.3984 1100.6953 1312.2969 1100.5938 1317.6953 1102.6953 1321.7969 1104.8984 1326.1953 1112 1326.1953 1114.2969 1321.7969 1116.1953 1318.1953 1116.1953 1312 1114.2969 1308.3984 Z M1099.7969 1325.2969 C1104.0938 1330.5 1112.5938 1330.5 1117.0938 1325.2969 1121.3984 1320 1121.3984 1310.1953 1117.0938 1304.8984 1112.5938 1299.6953 1104.0938 1299.6953 1099.7969 1304.8984 1095.5 1310.1953 1095.5 1320 1099.7969 1325.2969 Z" fill="#000000"/>
<path d="M1143.8984 1325.3984 C1141 1330.3984 1131.5938 1330.5938 1127.7969 1325.3984 1124.0938 1320.3984 1122.8984 1311.7969 1127.7969 1305 1130 1302 1137.3984 1297.6953 1143.8984 1305 L1143.8984 1302 1148.0938 1302 1148.0938 1338.5 1143.8984 1338.5 1143.8984 1325.3984 Z M1142.5 1321.3984 C1144.0938 1318.3984 1144.2969 1315.5 1143.5938 1311.8984 1142 1304.5 1136.0938 1304.0938 1133.7969 1305.5 1127.8984 1309.0938 1128.5938 1318.3984 1131 1322 1134.5 1327 1140.2969 1325.6953 1142.5 1321.3984 Z" fill="#000000"/>
<path d="M1173.5938 1325.1953 C1172.5938 1326.5 1172.5 1329.3984 1173.5 1331.0938 1175.8984 1335 1182.2969 1334.8984 1184.5 1331.0938 1185.7969 1328.8984 1185 1326 1184.3984 1325.1953 1181.8984 1321.5 1176.6953 1321 1173.5938 1325.1953 Z M1172.6953 1320.7969 C1167.5938 1324.3984 1167.5938 1329.8984 1169.7969 1333.3984 1173.5 1339.1953 1184.1953 1339.3984 1188.1953 1333.3984 1190.6953 1329.5938 1190 1324 1185.2969 1320.7969 1192.6953 1316.1953 1190.6953 1308 1189 1305.7969 1184.5938 1299.8984 1173.7969 1299.0938 1169 1305.7969 1167.0938 1308.3984 1165.3984 1316 1172.6953 1320.7969 Z M1185.1953 1315.7969 C1186.5 1313.7969 1186.5938 1310.1953 1185.1953 1308.1953 1182.6953 1304.2969 1175.7969 1303.8984 1172.7969 1308.1953 1171.3984 1310.1953 1171.3984 1313.5938 1172.7969 1315.7969 1175.5938 1320.0938 1182.5938 1320 1185.1953 1315.7969 Z" fill="#000000"/>
</g>
<path d="M1053.5859 2872.125 C1068.4766 2876.6641 1087.0703 2879.3594 1107.2344 2879.3594 1156.1563 2879.3594 1195.8125 2863.5 1195.8125 2843.9297 1195.8125 2831.9531 1180.9609 2821.3672 1158.2266 2814.9609" stroke="#000000" stroke-width="2.5" stroke-linejoin="miter" fill="none"/>
<path transform="matrix(-0.0535 -0.0151 0.0151 -0.0535 1158.2266 2814.9609)" stroke="none" fill="#000000" d="M-90 -180 360 0 -90 180 0 0 -90 -180 Z"/>
<g>
<path d="M1087.6953 2825.3984 C1083.0938 2822.8984 1072.2969 2819.0938 1072.6953 2807 L1096.0938 2807 1096.0938 2811.1953 1077.1953 2811.1953 C1079.1953 2818.2969 1085.1953 2818.0938 1090.7969 2822.2969 1098.5938 2827.6953 1097 2834.3984 1094.8984 2838.1953 1091.5938 2844.1953 1080.3984 2844.1953 1076.5 2839.0938 1074.6953 2836.7969 1073.6953 2834.8984 1073.6953 2830.1953 L1077.6953 2830.1953 C1077.8984 2833.7969 1078.7969 2835.3984 1080.6953 2837.1953 1082.7969 2839.1953 1089.2969 2839.6953 1091.5 2835.1953 1092.8984 2832.1953 1092.0938 2827.6953 1087.6953 2825.3984 Z" fill="#000000"/>
</g>
<ellipse cx="921.2266" cy="2923.1094" rx="159.4375" ry="26.5703" stroke="#000000" stroke-width="2.5" stroke-linejoin="miter" stroke-dasharray="12" fill="none"/>
<g>
<path d="M2135.5 1178.5 2148.5 1142 2153.3984 1142 2166.2969 1178.5 2161.2969 1178.5 2151 1147.5938 2140.5 1178.5 2135.5 1178.5 Z" fill="#000000"/>
</g>
<g>
<path d="M2348.5 1178.5 2361.5 1142 2366.3984 1142 2379.2969 1178.5 2374.2969 1178.5 2364 1147.5938 2353.5 1178.5 2348.5 1178.5 Z" fill="#000000"/>
</g>
<g>
<path d="M1977.5 2415.2969 C1980.1953 2419.5 1979.6953 2425 1977.0938 2429.5 1975 2433.1953 1968.7969 2433.5 1966.5 2429.1953 1964.7969 2426.0938 1963 2420.8984 1966.5 2415 1968.2969 2411.8984 1974.0938 2410 1977.5 2415.2969 Z M1964.5938 2411.7969 C1969.7969 2405.1953 1978.1953 2408.3984 1980.6953 2411.7969 1986.0938 2419.0938 1983.6953 2428.5 1980.6953 2432.1953 1976.2969 2437.6953 1969.2969 2437.5 1964.5938 2432.1953 L1964.5938 2435.2969 1960.3984 2435.2969 1960.3984 2397.9922 1964.5938 2397.9922 1964.5938 2411.7969 Z" fill="#000000"/>
</g>
<g>
<path d="M1986.7969 2403.5938 C1989.6797 2413.0391 2000.7188 2413.0391 2003.5938 2403.5938 2004.875 2399.4375 2004.7188 2391.8359 2003.5938 2388.3125 2000.7188 2378.875 1989.6797 2378.875 1986.7969 2388.3125 1985.6797 2391.8359 1985.5156 2399.4375 1986.7969 2403.5938 Z M1990.4766 2387.6797 C1989.0391 2391.0391 1989.0391 2400.9531 1990.4766 2404.2344 1992.2344 2408.3125 1998.0781 2408.3984 1999.9141 2404.2344 2001.3594 2400.9531 2001.3594 2391.0391 1999.9141 2387.6797 1998.0781 2383.5156 1992.2344 2383.5938 1990.4766 2387.6797 Z" fill="#000000"/>
</g>
<g>
<path d="M2083.5 2415.2969 C2086.1953 2419.5 2085.6953 2425 2083.0938 2429.5 2081 2433.1953 2074.7969 2433.5 2072.5 2429.1953 2070.7969 2426.0938 2069 2420.8984 2072.5 2415 2074.2969 2411.8984 2080.0938 2410 2083.5 2415.2969 Z M2070.5938 2411.7969 C2075.7969 2405.1953 2084.1953 2408.3984 2086.6953 2411.7969 2092.0938 2419.0938 2089.6953 2428.5 2086.6953 2432.1953 2082.2969 2437.6953 2075.2969 2437.5 2070.5938 2432.1953 L2070.5938 2435.2969 2066.3984 2435.2969 2066.3984 2397.9922 2070.5938 2397.9922 2070.5938 2411.7969 Z" fill="#000000"/>
</g>
<g>
<path d="M2101.1953 2410.3984 C2100.7188 2406.4766 2098.4766 2404.6328 2093.6797 2404.7188 L2093.6797 2401.6797 2100 2401.6797 2100 2382 2103.5156 2382 2103.5156 2410.3984 2101.1953 2410.3984 Z" fill="#000000"/>
</g>
<g>
<path d="M2190.5 2415.2969 C2193.1953 2419.5 2192.6953 2425 2190.0938 2429.5 2188 2433.1953 2181.7969 2433.5 2179.5 2429.1953 2177.7969 2426.0938 2176 2420.8984 2179.5 2415 2181.2969 2411.8984 2187.0938 2410 2190.5 2415.2969 Z M2177.5938 2411.7969 C2182.7969 2405.1953 2191.1953 2408.3984 2193.6953 2411.7969 2199.0938 2419.0938 2196.6953 2428.5 2193.6953 2432.1953 2189.2969 2437.6953 2182.2969 2437.5 2177.5938 2432.1953 L2177.5938 2435.2969 2173.3984 2435.2969 2173.3984 2397.9922 2177.5938 2397.9922 2177.5938 2411.7969 Z" fill="#000000"/>
</g>
<g>
<path d="M2209.3594 2396.7188 C2205.6797 2394.7188 2197.0391 2391.6797 2197.3594 2382 L2216.0781 2382 2216.0781 2385.3594 2200.9531 2385.3594 C2202.5547 2391.0391 2207.3594 2390.875 2211.8359 2394.2344 2218.0781 2398.5547 2216.7969 2403.9141 2215.1172 2406.9531 2212.4766 2411.7578 2203.5156 2411.7578 2200.3984 2407.6797 2198.9531 2405.8359 2198.1563 2404.3125 2198.1563 2400.5547 L2201.3594 2400.5547 C2201.5156 2403.4375 2202.2344 2404.7188 2203.7578 2406.1563 2205.4375 2407.7578 2210.6328 2408.1563 2212.3984 2404.5547 2213.5156 2402.1563 2212.875 2398.5547 2209.3594 2396.7188 Z" fill="#000000"/>
</g>
<g>
<path d="M2296.5 2415.2969 C2299.1953 2419.5 2298.6953 2425 2296.0938 2429.5 2294 2433.1953 2287.7969 2433.5 2285.5 2429.1953 2283.7969 2426.0938 2282 2420.8984 2285.5 2415 2287.2969 2411.8984 2293.0938 2410 2296.5 2415.2969 Z M2283.5938 2411.7969 C2288.7969 2405.1953 2297.1953 2408.3984 2299.6953 2411.7969 2305.0938 2419.0938 2302.6953 2428.5 2299.6953 2432.1953 2295.2969 2437.6953 2288.2969 2437.5 2283.5938 2432.1953 L2283.5938 2435.2969 2279.3984 2435.2969 2279.3984 2397.9922 2283.5938 2397.9922 2283.5938 2411.7969 Z" fill="#000000"/>
</g>
<g>
<path d="M2304.5156 2390.5547 C2304.9141 2385.9141 2306.1953 2384.2344 2308.5156 2382.5547 2311.5547 2380.3125 2319.2344 2380.7969 2322.3594 2385.8359 2324.2734 2389.0391 2323.875 2394.9531 2319.6328 2396.7969 2323.4766 2399.4375 2323.3125 2403.5938 2321.7969 2406.7188 2319.3984 2411.5938 2312.0391 2411.2734 2309.1563 2409.1953 2306.8359 2407.5156 2305.4766 2406.0781 2305.3984 2401.1953 L2308.5938 2401.1953 C2308.5156 2402.875 2308.7578 2404.2344 2309.9531 2405.6797 2311.5547 2407.6797 2316.5938 2407.9141 2318.1172 2405.9141 2320.3594 2403.0391 2319.3125 2398.1563 2314.6797 2398.1563 L2311.9531 2398.1563 2311.9531 2395.1172 2314.7578 2395.1172 C2319.4766 2395.1172 2320.2734 2391.5938 2319.7969 2388.9531 2318.9141 2384.0781 2312.0391 2383.4375 2309.4766 2386 2308.2734 2387.1953 2308.0391 2389.0391 2308.0391 2390.5547 L2304.5156 2390.5547 Z" fill="#000000"/>
</g>
<g>
<path d="M2184.3984 1161.3984 2186.9531 1161.3984 2186.9531 1143.1563 2190.9531 1143.1563 2190.9531 1139.7188 2186.9531 1139.7188 2186.9531 1133 2183.4375 1133 2183.4375 1139.7188 2171.2734 1139.7188 2171.2734 1143.2344 2184.3984 1161.3984 Z M2183.4375 1155.1563 2183.4375 1143.1563 2174.6328 1143.1563 2183.4375 1155.1563 Z" fill="#000000"/>
</g>
<g>
<path d="M2402.7969 1158.2734 2402.7969 1161.3984 2383.8359 1161.3984 2383.8359 1157.7969 2399.1172 1157.7969 C2392.5547 1147.6328 2389.9141 1142.8359 2387.4375 1133 L2391.1953 1133 C2392.9531 1142.5156 2395.5156 1147.7969 2402.7969 1158.2734 Z" fill="#000000"/>
</g>
<g>
<path d="M2154.1953 3591.7969 2158.8984 3591.7969 C2157.6953 3585.5 2155.5 3582.5938 2152.7969 3580.3984 2146.5938 3575.3984 2137.0938 3576.2969 2132.3984 3581.5938 2124.0938 3591 2127.5938 3604.0938 2131.1953 3608.8984 2138.2969 3618.2969 2149.2969 3615.7969 2153.0938 3612.2969 2155.5938 3610 2157.1953 3607.6953 2158.2969 3603.0938 L2153.5 3603.0938 C2152.7969 3605.0938 2151.7969 3607 2150.3984 3608.5938 2146.5938 3612.6953 2138.5938 3611.8984 2135.0938 3606.7969 2132.0938 3602.3984 2130.2969 3591.6953 2135.7969 3584.7969 2138.3984 3581.5 2145.2969 3579.2969 2150.6953 3584.2969 2153.3984 3586.7969 2153.5 3590 2154.1953 3591.7969 Z" fill="#000000"/>
</g>
<g>
<path d="M2163.7969 3590.5938 C2166.6797 3600.0391 2177.7188 3600.0391 2180.5938 3590.5938 2181.875 3586.4375 2181.7188 3578.8359 2180.5938 3575.3125 2177.7188 3565.875 2166.6797 3565.875 2163.7969 3575.3125 2162.6797 3578.8359 2162.5156 3586.4375 2163.7969 3590.5938 Z M2167.4766 3574.6797 C2166.0391 3578.0391 2166.0391 3587.9531 2167.4766 3591.2344 2169.2344 3595.3125 2175.0781 3595.3984 2176.9141 3591.2344 2178.3594 3587.9531 2178.3594 3578.0391 2176.9141 3574.6797 2175.0781 3570.5156 2169.2344 3570.5938 2167.4766 3574.6797 Z" fill="#000000"/>
</g>
<g>
<path d="M2376.1953 3591.7969 2380.8984 3591.7969 C2379.6953 3585.5 2377.5 3582.5938 2374.7969 3580.3984 2368.5938 3575.3984 2359.0938 3576.2969 2354.3984 3581.5938 2346.0938 3591 2349.5938 3604.0938 2353.1953 3608.8984 2360.2969 3618.2969 2371.2969 3615.7969 2375.0938 3612.2969 2377.5938 3610 2379.1953 3607.6953 2380.2969 3603.0938 L2375.5 3603.0938 C2374.7969 3605.0938 2373.7969 3607 2372.3984 3608.5938 2368.5938 3612.6953 2360.5938 3611.8984 2357.0938 3606.7969 2354.0938 3602.3984 2352.2969 3591.6953 2357.7969 3584.7969 2360.3984 3581.5 2367.2969 3579.2969 2372.6953 3584.2969 2375.3984 3586.7969 2375.5 3590 2376.1953 3591.7969 Z" fill="#000000"/>
</g>
<g>
<path d="M2383.5156 3577.5547 C2383.9141 3572.9141 2385.1953 3571.2344 2387.5156 3569.5547 2390.5547 3567.3125 2398.2344 3567.7969 2401.3594 3572.8359 2403.2734 3576.0391 2402.875 3581.9531 2398.6328 3583.7969 2402.4766 3586.4375 2402.3125 3590.5938 2400.7969 3593.7188 2398.3984 3598.5938 2391.0391 3598.2734 2388.1563 3596.1953 2385.8359 3594.5156 2384.4766 3593.0781 2384.3984 3588.1953 L2387.5938 3588.1953 C2387.5156 3589.875 2387.7578 3591.2344 2388.9531 3592.6797 2390.5547 3594.6797 2395.5938 3594.9141 2397.1172 3592.9141 2399.3594 3590.0391 2398.3125 3585.1563 2393.6797 3585.1563 L2390.9531 3585.1563 2390.9531 3582.1172 2393.7578 3582.1172 C2398.4766 3582.1172 2399.2734 3578.5938 2398.7969 3575.9531 2397.9141 3571.0781 2391.0391 3570.4375 2388.4766 3573 2387.2734 3574.1953 2387.0391 3576.0391 2387.0391 3577.5547 L2383.5156 3577.5547 Z" fill="#000000"/>
</g>
<g>
<path d="M1630.5 3614.5 1643.5 3578 1648.3984 3578 1661.2969 3614.5 1656.2969 3614.5 1646 3583.5938 1635.5 3614.5 1630.5 3614.5 Z" fill="#000000"/>
</g>
<g>
<path d="M1667.7969 3590.5938 C1670.6797 3600.0391 1681.7188 3600.0391 1684.5938 3590.5938 1685.875 3586.4375 1685.7188 3578.8359 1684.5938 3575.3125 1681.7188 3565.875 1670.6797 3565.875 1667.7969 3575.3125 1666.6797 3578.8359 1666.5156 3586.4375 1667.7969 3590.5938 Z M1671.4766 3574.6797 C1670.0391 3578.0391 1670.0391 3587.9531 1671.4766 3591.2344 1673.2344 3595.3125 1679.0781 3595.3984 1680.9141 3591.2344 1682.3594 3587.9531 1682.3594 3578.0391 1680.9141 3574.6797 1679.0781 3570.5156 1673.2344 3570.5938 1671.4766 3574.6797 Z" fill="#000000"/>
</g>
<g>
<path d="M1852.5 3614.5 1865.5 3578 1870.3984 3578 1883.2969 3614.5 1878.2969 3614.5 1868 3583.5938 1857.5 3614.5 1852.5 3614.5 Z" fill="#000000"/>
</g>
<g>
<path d="M1887.5156 3577.5547 C1887.9141 3572.9141 1889.1953 3571.2344 1891.5156 3569.5547 1894.5547 3567.3125 1902.2344 3567.7969 1905.3594 3572.8359 1907.2734 3576.0391 1906.875 3581.9531 1902.6328 3583.7969 1906.4766 3586.4375 1906.3125 3590.5938 1904.7969 3593.7188 1902.3984 3598.5938 1895.0391 3598.2734 1892.1563 3596.1953 1889.8359 3594.5156 1888.4766 3593.0781 1888.3984 3588.1953 L1891.5938 3588.1953 C1891.5156 3589.875 1891.7578 3591.2344 1892.9531 3592.6797 1894.5547 3594.6797 1899.5938 3594.9141 1901.1172 3592.9141 1903.3594 3590.0391 1902.3125 3585.1563 1897.6797 3585.1563 L1894.9531 3585.1563 1894.9531 3582.1172 1897.7578 3582.1172 C1902.4766 3582.1172 1903.2734 3578.5938 1902.7969 3575.9531 1901.9141 3571.0781 1895.0391 3570.4375 1892.4766 3573 1891.2734 3574.1953 1891.0391 3576.0391 1891.0391 3577.5547 L1887.5156 3577.5547 Z" fill="#000000"/>
</g>
<g>
<path d="M287.5938 3578 287.5938 3614.5 292.2969 3614.5 292.2969 3582.1953 310.2969 3582.1953 310.2969 3578 287.5938 3578 Z" fill="#000000"/>
</g>
<g>
<path d="M325.7969 3590.5938 C328.6797 3600.0391 339.7188 3600.0391 342.5938 3590.5938 343.875 3586.4375 343.7188 3578.8359 342.5938 3575.3125 339.7188 3565.875 328.6797 3565.875 325.7969 3575.3125 324.6797 3578.8359 324.5156 3586.4375 325.7969 3590.5938 Z M329.4766 3574.6797 C328.0391 3578.0391 328.0391 3587.9531 329.4766 3591.2344 331.2344 3595.3125 337.0781 3595.3984 338.9141 3591.2344 340.3594 3587.9531 340.3594 3578.0391 338.9141 3574.6797 337.0781 3570.5156 331.2344 3570.5938 329.4766 3574.6797 Z" fill="#000000"/>
</g>
<g>
<path d="M783.5938 3578 783.5938 3614.5 788.2969 3614.5 788.2969 3582.1953 806.2969 3582.1953 806.2969 3578 783.5938 3578 Z" fill="#000000"/>
</g>
<g>
<path d="M839.7969 3594.2734 839.7969 3597.3984 820.8359 3597.3984 820.8359 3593.7969 836.1172 3593.7969 C829.5547 3583.6328 826.9141 3578.8359 824.4375 3569 L828.1953 3569 C829.9531 3578.5156 832.5156 3583.7969 839.7969 3594.2734 Z" fill="#000000"/>
</g>
<g>
<path d="M1341.5938 3578 1341.5938 3614.5 1346.2969 3614.5 1346.2969 3582.1953 1364.2969 3582.1953 1364.2969 3578 1341.5938 3578 Z" fill="#000000"/>
</g>
<g>
<path d="M1388.1953 3597.3984 C1387.7188 3593.4766 1385.4766 3591.6328 1380.6797 3591.7188 L1380.6797 3588.6797 1387 3588.6797 1387 3569 1390.5156 3569 1390.5156 3597.3984 1388.1953 3597.3984 Z" fill="#000000"/>
<path d="M1404.1172 3576.2734 C1405.3984 3569.7188 1412.3594 3571.2344 1414.3594 3573.875 1416.2734 3576.4375 1415.9531 3579.7969 1414.5938 3581.875 1412.5156 3585 1407.7188 3585.3984 1404.5156 3581.7188 L1401.3984 3581.7188 1403.6328 3597.3984 1418.4375 3597.3984 1418.4375 3593.7969 1406.4375 3593.7969 1405.3125 3585.9531 C1408.0391 3588.5938 1415 3588.6797 1418.1953 3583.3125 1420.0391 3580.1172 1419.7969 3575.7969 1417.875 3572.8359 1413.1563 3565.5547 1401.1563 3567.0781 1400.4375 3576.2734 L1404.1172 3576.2734 Z" fill="#000000"/>
</g>
<rect x="1275.5391" y="1842.4375" width="425.1797" height="425.1797" stroke="#000000" stroke-width="5" stroke-linejoin="miter" fill="#ffffb3"/>
<circle cx="1488.1328" cy="2055.0234" r="62.0078" fill="#ff0000"/>
<g>
<path d="M1501.5391 2059.375 1479.9766 2059.375 1479.9766 2071.1328 1505.3125 2071.1328 1505.3125 2080.0938 1469.4766 2080.0938 1469.4766 2029 1479.9766 2029 1479.9766 2050.4141 1501.5391 2050.4141 1501.5391 2059.375 Z" fill="#ffffff"/>
</g>
<g>
<path d="M1180.7969 2205.0938 1190.1953 2219.5 1195.8984 2219.5 1183.6953 2201.2969 1196.5 2183 1190.7969 2183 1180.7969 2197.5 1170.7969 2183 1165.0938 2183 1177.8984 2201.2969 1165.6953 2219.5 1171.3984 2219.5 1180.7969 2205.0938 Z" fill="#000000"/>
</g>
<g>
<path d="M1201.5156 2182.5547 C1201.9141 2177.9141 1203.1953 2176.2344 1205.5156 2174.5547 1208.5547 2172.3125 1216.2344 2172.7969 1219.3594 2177.8359 1221.2734 2181.0391 1220.875 2186.9531 1216.6328 2188.7969 1220.4766 2191.4375 1220.3125 2195.5938 1218.7969 2198.7188 1216.3984 2203.5938 1209.0391 2203.2734 1206.1563 2201.1953 1203.8359 2199.5156 1202.4766 2198.0781 1202.3984 2193.1953 L1205.5938 2193.1953 C1205.5156 2194.875 1205.7578 2196.2344 1206.9531 2197.6797 1208.5547 2199.6797 1213.5938 2199.9141 1215.1172 2197.9141 1217.3594 2195.0391 1216.3125 2190.1563 1211.6797 2190.1563 L1208.9531 2190.1563 1208.9531 2187.1172 1211.7578 2187.1172 C1216.4766 2187.1172 1217.2734 2183.5938 1216.7969 2180.9531 1215.9141 2176.0781 1209.0391 2175.4375 1206.4766 2178 1205.2734 2179.1953 1205.0391 2181.0391 1205.0391 2182.5547 L1201.5156 2182.5547 Z" fill="#000000"/>
</g>
<g>
<path d="M1180.7969 2099.0938 1190.1953 2113.5 1195.8984 2113.5 1183.6953 2095.2969 1196.5 2077 1190.7969 2077 1180.7969 2091.5 1170.7969 2077 1165.0938 2077 1177.8984 2095.2969 1165.6953 2113.5 1171.3984 2113.5 1180.7969 2099.0938 Z" fill="#000000"/>
</g>
<g>
<path d="M1213.3594 2082.7188 C1209.6797 2080.7188 1201.0391 2077.6797 1201.3594 2068 L1220.0781 2068 1220.0781 2071.3594 1204.9531 2071.3594 C1206.5547 2077.0391 1211.3594 2076.875 1215.8359 2080.2344 1222.0781 2084.5547 1220.7969 2089.9141 1219.1172 2092.9531 1216.4766 2097.7578 1207.5156 2097.7578 1204.3984 2093.6797 1202.9531 2091.8359 1202.1563 2090.3125 1202.1563 2086.5547 L1205.3594 2086.5547 C1205.5156 2089.4375 1206.2344 2090.7188 1207.7578 2092.1563 1209.4375 2093.7578 1214.6328 2094.1563 1216.3984 2090.5547 1217.5156 2088.1563 1216.875 2084.5547 1213.3594 2082.7188 Z" fill="#000000"/>
</g>
<g>
<path d="M1180.7969 1992.0938 1190.1953 2006.5 1195.8984 2006.5 1183.6953 1988.2969 1196.5 1970 1190.7969 1970 1180.7969 1984.5 1170.7969 1970 1165.0938 1970 1177.8984 1988.2969 1165.6953 2006.5 1171.3984 2006.5 1180.7969 1992.0938 Z" fill="#000000"/>
</g>
<g>
<path d="M1211.1953 1989.3984 C1210.7188 1985.4766 1208.4766 1983.6328 1203.6797 1983.7188 L1203.6797 1980.6797 1210 1980.6797 1210 1961 1213.5156 1961 1213.5156 1989.3984 1211.1953 1989.3984 Z" fill="#000000"/>
</g>
<g>
<path d="M1758.5938 2219.5 1772.3984 2196.3984 1772.3984 2183 1777.0938 2183 1777.0938 2196.3984 1791 2219.5 1785.2969 2219.5 1774.8984 2201.2969 1764.2969 2219.5 1758.5938 2219.5 Z" fill="#000000"/>
</g>
<g>
<path d="M1794.5156 2182.5547 C1794.9141 2177.9141 1796.1953 2176.2344 1798.5156 2174.5547 1801.5547 2172.3125 1809.2344 2172.7969 1812.3594 2177.8359 1814.2734 2181.0391 1813.875 2186.9531 1809.6328 2188.7969 1813.4766 2191.4375 1813.3125 2195.5938 1811.7969 2198.7188 1809.3984 2203.5938 1802.0391 2203.2734 1799.1563 2201.1953 1796.8359 2199.5156 1795.4766 2198.0781 1795.3984 2193.1953 L1798.5938 2193.1953 C1798.5156 2194.875 1798.7578 2196.2344 1799.9531 2197.6797 1801.5547 2199.6797 1806.5938 2199.9141 1808.1172 2197.9141 1810.3594 2195.0391 1809.3125 2190.1563 1804.6797 2190.1563 L1801.9531 2190.1563 1801.9531 2187.1172 1804.7578 2187.1172 C1809.4766 2187.1172 1810.2734 2183.5938 1809.7969 2180.9531 1808.9141 2176.0781 1802.0391 2175.4375 1799.4766 2178 1798.2734 2179.1953 1798.0391 2181.0391 1798.0391 2182.5547 L1794.5156 2182.5547 Z" fill="#000000"/>
</g>
<g>
<path d="M1758.5938 2113.5 1772.3984 2090.3984 1772.3984 2077 1777.0938 2077 1777.0938 2090.3984 1791 2113.5 1785.2969 2113.5 1774.8984 2095.2969 1764.2969 2113.5 1758.5938 2113.5 Z" fill="#000000"/>
</g>
<g>
<path d="M1806.3594 2082.7188 C1802.6797 2080.7188 1794.0391 2077.6797 1794.3594 2068 L1813.0781 2068 1813.0781 2071.3594 1797.9531 2071.3594 C1799.5547 2077.0391 1804.3594 2076.875 1808.8359 2080.2344 1815.0781 2084.5547 1813.7969 2089.9141 1812.1172 2092.9531 1809.4766 2097.7578 1800.5156 2097.7578 1797.3984 2093.6797 1795.9531 2091.8359 1795.1563 2090.3125 1795.1563 2086.5547 L1798.3594 2086.5547 C1798.5156 2089.4375 1799.2344 2090.7188 1800.7578 2092.1563 1802.4375 2093.7578 1807.6328 2094.1563 1809.3984 2090.5547 1810.5156 2088.1563 1809.875 2084.5547 1806.3594 2082.7188 Z" fill="#000000"/>
</g>
<g>
<path d="M1758.5938 2006.5 1772.3984 1983.3984 1772.3984 1970 1777.0938 1970 1777.0938 1983.3984 1791 2006.5 1785.2969 2006.5 1774.8984 1988.2969 1764.2969 2006.5 1758.5938 2006.5 Z" fill="#000000"/>
</g>
<g>
<path d="M1804.1953 1990.3984 C1803.7188 1986.4766 1801.4766 1984.6328 1796.6797 1984.7188 L1796.6797 1981.6797 1803 1981.6797 1803 1962 1806.5156 1962 1806.5156 1990.3984 1804.1953 1990.3984 Z" fill="#000000"/>
</g>
<g>
<path d="M1349.7969 1642.0938 1359.1953 1656.5 1364.8984 1656.5 1352.6953 1638.2969 1365.5 1620 1359.7969 1620 1349.7969 1634.5 1339.7969 1620 1334.0938 1620 1346.8984 1638.2969 1334.6953 1656.5 1340.3984 1656.5 1349.7969 1642.0938 Z" fill="#000000"/>
</g>
<g>
<path d="M1370.7969 1633.5938 C1373.6797 1643.0391 1384.7188 1643.0391 1387.5938 1633.5938 1388.875 1629.4375 1388.7188 1621.8359 1387.5938 1618.3125 1384.7188 1608.875 1373.6797 1608.875 1370.7969 1618.3125 1369.6797 1621.8359 1369.5156 1629.4375 1370.7969 1633.5938 Z M1374.4766 1617.6797 C1373.0391 1621.0391 1373.0391 1630.9531 1374.4766 1634.2344 1376.2344 1638.3125 1382.0781 1638.3984 1383.9141 1634.2344 1385.3594 1630.9531 1385.3594 1621.0391 1383.9141 1617.6797 1382.0781 1613.5156 1376.2344 1613.5938 1374.4766 1617.6797 Z" fill="#000000"/>
</g>
<g>
<path d="M1585.5938 1656.5 1599.3984 1633.3984 1599.3984 1620 1604.0938 1620 1604.0938 1633.3984 1618 1656.5 1612.2969 1656.5 1601.8984 1638.2969 1591.2969 1656.5 1585.5938 1656.5 Z" fill="#000000"/>
</g>
<g>
<path d="M1623.7969 1633.5938 C1626.6797 1643.0391 1637.7188 1643.0391 1640.5938 1633.5938 1641.875 1629.4375 1641.7188 1621.8359 1640.5938 1618.3125 1637.7188 1608.875 1626.6797 1608.875 1623.7969 1618.3125 1622.6797 1621.8359 1622.5156 1629.4375 1623.7969 1633.5938 Z M1627.4766 1617.6797 C1626.0391 1621.0391 1626.0391 1630.9531 1627.4766 1634.2344 1629.2344 1638.3125 1635.0781 1638.3984 1636.9141 1634.2344 1638.3594 1630.9531 1638.3594 1621.0391 1636.9141 1617.6797 1635.0781 1613.5156 1629.2344 1613.5938 1627.4766 1617.6797 Z" fill="#000000"/>
</g>
<path d="M1434.9844 3534.3047 1452.6953 3534.3047 1452.6953 3410.2969 1434.9844 3410.2969" stroke="#007dcc" stroke-width="1.25" stroke-linejoin="miter" fill="none"/>
<path d="M1434.9844 3392.5781 1452.6953 3392.5781 1452.6953 3268.5703 1434.9844 3268.5703" stroke="#007dcc" stroke-width="1.25" stroke-linejoin="miter" fill="none"/>
<path d="M1434.9844 3250.8516 1452.6953 3250.8516 1452.6953 3126.8438 1434.9844 3126.8438" stroke="#007dcc" stroke-width="1.25" stroke-linejoin="miter" fill="none"/>
<path d="M1434.9844 3109.125 1452.6953 3109.125 1452.6953 2985.1172 1434.9844 2985.1172" stroke="#007dcc" stroke-width="1.25" stroke-linejoin="miter" fill="none"/>
<path d="M1452.6953 3534.3047 1452.6953 3410.2969" stroke="#007dcc" stroke-width="5" stroke-linejoin="miter" fill="none"/>
<path d="M1452.6953 3392.5781 1452.6953 3268.5703" stroke="#007dcc" stroke-width="5" stroke-linejoin="miter" fill="none"/>
<path d="M1452.6953 3250.8516 1452.6953 3126.8438" stroke="#007dcc" stroke-width="5" stroke-linejoin="miter" fill="none"/>
<path d="M1452.6953 3109.125 1452.6953 2985.1172" stroke="#007dcc" stroke-width="5" stroke-linejoin="miter" fill="none"/>
<g>
<path d="M1483.3594 3473.7188 C1479.6797 3471.7188 1471.0391 3468.6797 1471.3594 3459 L1490.0781 3459 1490.0781 3462.3594 1474.9531 3462.3594 C1476.5547 3468.0391 1481.3594 3467.875 1485.8359 3471.2344 1492.0781 3475.5547 1490.7969 3480.9141 1489.1172 3483.9531 1486.4766 3488.7578 1477.5156 3488.7578 1474.3984 3484.6797 1472.9531 3482.8359 1472.1563 3481.3125 1472.1563 3477.5547 L1475.3594 3477.5547 C1475.5156 3480.4375 1476.2344 3481.7188 1477.7578 3483.1563 1479.4375 3484.7578 1484.6328 3485.1563 1486.3984 3481.5547 1487.5156 3479.1563 1486.875 3475.5547 1483.3594 3473.7188 Z" fill="#007dcc"/>
<path d="M1512.7969 3484.2734 1512.7969 3487.3984 1493.8359 3487.3984 1493.8359 3483.7969 1509.1172 3483.7969 C1502.5547 3473.6328 1499.9141 3468.8359 1497.4375 3459 L1501.1953 3459 C1502.9531 3468.5156 1505.5156 3473.7969 1512.7969 3484.2734 Z" fill="#007dcc"/>
</g>
<g>
<path d="M1483.3594 3331.7188 C1479.6797 3329.7188 1471.0391 3326.6797 1471.3594 3317 L1490.0781 3317 1490.0781 3320.3594 1474.9531 3320.3594 C1476.5547 3326.0391 1481.3594 3325.875 1485.8359 3329.2344 1492.0781 3333.5547 1490.7969 3338.9141 1489.1172 3341.9531 1486.4766 3346.7578 1477.5156 3346.7578 1474.3984 3342.6797 1472.9531 3340.8359 1472.1563 3339.3125 1472.1563 3335.5547 L1475.3594 3335.5547 C1475.5156 3338.4375 1476.2344 3339.7188 1477.7578 3341.1563 1479.4375 3342.7578 1484.6328 3343.1563 1486.3984 3339.5547 1487.5156 3337.1563 1486.875 3333.5547 1483.3594 3331.7188 Z" fill="#007dcc"/>
<path d="M1509.3594 3319.875 C1511.2734 3322.6797 1513.7578 3328.0391 1511.7578 3338.2734 1510.5547 3344.1953 1502.7188 3349.0781 1496.3984 3342.5156 1494.0781 3340.1172 1492.0781 3333.6328 1496.7188 3329.1563 1499.1172 3326.8359 1504.9531 3325.0781 1509.1172 3330.3594 1509.0391 3326.5156 1508.2344 3324.2734 1507.0391 3322.3594 1505.0391 3318.9141 1500.9531 3319 1499.1172 3320.7578 1498.3125 3321.4766 1497.8359 3322.1953 1497.8359 3323.7969 L1494.4766 3323.7969 C1494.3984 3321.7969 1495.5156 3319.7969 1496.9531 3318.3594 1500.3984 3314.9141 1506.7188 3315.9531 1509.3594 3319.875 Z M1498.4766 3332.1953 C1500.7969 3329.0781 1505.4375 3329.5547 1507.7578 3332.6797 1509.1953 3334.5156 1508.7188 3338.0391 1507.4375 3340.0391 1505.7578 3342.9141 1501.2734 3343.6328 1498.5547 3340.0391 1497.1172 3338.1172 1496.875 3334.2734 1498.4766 3332.1953 Z" fill="#007dcc"/>
</g>
<g>
<path d="M1471.5156 3183.5547 C1471.9141 3178.9141 1473.1953 3177.2344 1475.5156 3175.5547 1478.5547 3173.3125 1486.2344 3173.7969 1489.3594 3178.8359 1491.2734 3182.0391 1490.875 3187.9531 1486.6328 3189.7969 1490.4766 3192.4375 1490.3125 3196.5938 1488.7969 3199.7188 1486.3984 3204.5938 1479.0391 3204.2734 1476.1563 3202.1953 1473.8359 3200.5156 1472.4766 3199.0781 1472.3984 3194.1953 L1475.5938 3194.1953 C1475.5156 3195.875 1475.7578 3197.2344 1476.9531 3198.6797 1478.5547 3200.6797 1483.5938 3200.9141 1485.1172 3198.9141 1487.3594 3196.0391 1486.3125 3191.1563 1481.6797 3191.1563 L1478.9531 3191.1563 1478.9531 3188.1172 1481.7578 3188.1172 C1486.4766 3188.1172 1487.2734 3184.5938 1486.7969 3181.9531 1485.9141 3177.0781 1479.0391 3176.4375 1476.4766 3179 1475.2734 3180.1953 1475.0391 3182.0391 1475.0391 3183.5547 L1471.5156 3183.5547 Z" fill="#007dcc"/>
<path d="M1503.1953 3203.3984 C1502.7188 3199.4766 1500.4766 3197.6328 1495.6797 3197.7188 L1495.6797 3194.6797 1502 3194.6797 1502 3175 1505.5156 3175 1505.5156 3203.3984 1503.1953 3203.3984 Z" fill="#007dcc"/>
</g>
<g>
<path d="M1471.5156 3041.5547 C1471.9141 3036.9141 1473.1953 3035.2344 1475.5156 3033.5547 1478.5547 3031.3125 1486.2344 3031.7969 1489.3594 3036.8359 1491.2734 3040.0391 1490.875 3045.9531 1486.6328 3047.7969 1490.4766 3050.4375 1490.3125 3054.5938 1488.7969 3057.7188 1486.3984 3062.5938 1479.0391 3062.2734 1476.1563 3060.1953 1473.8359 3058.5156 1472.4766 3057.0781 1472.3984 3052.1953 L1475.5938 3052.1953 C1475.5156 3053.875 1475.7578 3055.2344 1476.9531 3056.6797 1478.5547 3058.6797 1483.5938 3058.9141 1485.1172 3056.9141 1487.3594 3054.0391 1486.3125 3049.1563 1481.6797 3049.1563 L1478.9531 3049.1563 1478.9531 3046.1172 1481.7578 3046.1172 C1486.4766 3046.1172 1487.2734 3042.5938 1486.7969 3039.9531 1485.9141 3035.0781 1479.0391 3034.4375 1476.4766 3037 1475.2734 3038.1953 1475.0391 3040.0391 1475.0391 3041.5547 L1471.5156 3041.5547 Z" fill="#007dcc"/>
<path d="M1505.3594 3047.7188 C1501.6797 3045.7188 1493.0391 3042.6797 1493.3594 3033 L1512.0781 3033 1512.0781 3036.3594 1496.9531 3036.3594 C1498.5547 3042.0391 1503.3594 3041.875 1507.8359 3045.2344 1514.0781 3049.5547 1512.7969 3054.9141 1511.1172 3057.9531 1508.4766 3062.7578 1499.5156 3062.7578 1496.3984 3058.6797 1494.9531 3056.8359 1494.1563 3055.3125 1494.1563 3051.5547 L1497.3594 3051.5547 C1497.5156 3054.4375 1498.2344 3055.7188 1499.7578 3057.1563 1501.4375 3058.7578 1506.6328 3059.1563 1508.3984 3055.5547 1509.5156 3053.1563 1508.875 3049.5547 1505.3594 3047.7188 Z" fill="#007dcc"/>
</g>
<path d="M283.4531 3472.3047 1417.2656 3472.3047" stroke="#000000" stroke-width="1.25" stroke-linejoin="miter" fill="none"/>
<path d="M283.4531 3330.5781 1417.2656 3330.5781" stroke="#000000" stroke-width="1.25" stroke-linejoin="miter" fill="none"/>
<path d="M283.4531 3188.8516 1417.2656 3188.8516" stroke="#000000" stroke-width="1.25" stroke-linejoin="miter" fill="none"/>
<path d="M283.4531 3047.125 1417.2656 3047.125" stroke="#000000" stroke-width="1.25" stroke-linejoin="miter" fill="none"/>
<path d="M1629.8594 3472.3047 1913.3125 3472.3047" stroke="#000000" stroke-width="1.25" stroke-linejoin="miter" fill="none"/>
<path d="M1629.8594 3401.4375 1913.3125 3401.4375" stroke="#000000" stroke-width="1.25" stroke-linejoin="miter" fill="none"/>
<path d="M1629.8594 3330.5781 1913.3125 3330.5781" stroke="#000000" stroke-width="1.25" stroke-linejoin="miter" fill="none"/>
<path d="M1629.8594 3259.7109 1913.3125 3259.7109" stroke="#000000" stroke-width="1.25" stroke-linejoin="miter" fill="none"/>
<path d="M1629.8594 3188.8516 1913.3125 3188.8516" stroke="#000000" stroke-width="1.25" stroke-linejoin="miter" fill="none"/>
<path d="M1629.8594 3117.9844 1913.3125 3117.9844" stroke="#000000" stroke-width="1.25" stroke-linejoin="miter" fill="none"/>
<path d="M1629.8594 3047.125 1913.3125 3047.125" stroke="#000000" stroke-width="1.25" stroke-linejoin="miter" fill="none"/>
<path d="M2125.9063 3472.3047 2409.3594 3472.3047" stroke="#000000" stroke-width="1.25" stroke-linejoin="miter" fill="none"/>
<path d="M2125.9063 3401.4375 2409.3594 3401.4375" stroke="#000000" stroke-width="1.25" stroke-linejoin="miter" fill="none"/>
<path d="M2125.9063 3330.5781 2409.3594 3330.5781" stroke="#000000" stroke-width="1.25" stroke-linejoin="miter" fill="none"/>
<path d="M2125.9063 3259.7109 2409.3594 3259.7109" stroke="#000000" stroke-width="1.25" stroke-linejoin="miter" fill="none"/>
<path d="M2125.9063 3188.8516 2409.3594 3188.8516" stroke="#000000" stroke-width="1.25" stroke-linejoin="miter" fill="none"/>
<path d="M2125.9063 3117.9844 2409.3594 3117.9844" stroke="#000000" stroke-width="1.25" stroke-linejoin="miter" fill="none"/>
<path d="M2125.9063 3047.125 2409.3594 3047.125" stroke="#000000" stroke-width="1.25" stroke-linejoin="miter" fill="none"/>
<rect x="2125.8984" y="1204.6797" width="70.8594" height="566.9063" stroke="#000000" stroke-width="5" stroke-linejoin="miter" fill="#d1ebff"/>
<rect x="2196.7656" y="1204.6797" width="70.8594" height="566.9063" stroke="#000000" stroke-width="5" stroke-linejoin="miter" fill="#d1ebff"/>
<rect x="2267.625" y="1204.6797" width="70.8672" height="566.9063" stroke="#000000" stroke-width="5" stroke-linejoin="miter" fill="#d1ebff"/>
<rect x="2338.4922" y="1204.6797" width="70.8672" height="566.9063" stroke="#000000" stroke-width="5" stroke-linejoin="miter" fill="#d1ebff"/>
<path d="M2125.9063 1700.7266 2409.3594 1700.7266" stroke="#000000" stroke-width="1.25" stroke-linejoin="miter" fill="none"/>
<path d="M2125.9063 1629.8594 2409.3594 1629.8594" stroke="#000000" stroke-width="1.25" stroke-linejoin="miter" fill="none"/>
<path d="M2125.9063 1559 2409.3594 1559" stroke="#000000" stroke-width="1.25" stroke-linejoin="miter" fill="none"/>
<path d="M2125.9063 1488.1328 2409.3594 1488.1328" stroke="#000000" stroke-width="1.25" stroke-linejoin="miter" fill="none"/>
<path d="M2125.9063 1417.2734 2409.3594 1417.2734" stroke="#000000" stroke-width="1.25" stroke-linejoin="miter" fill="none"/>
<path d="M2125.9063 1346.4063 2409.3594 1346.4063" stroke="#000000" stroke-width="1.25" stroke-linejoin="miter" fill="none"/>
<path d="M2125.9063 1275.5469 2409.3594 1275.5469" stroke="#000000" stroke-width="1.25" stroke-linejoin="miter" fill="none"/>
<g>
<path d="M1260.1953 2941.5 1260.1953 2905 1285.1953 2905 1285.1953 2911.3984 1267.6953 2911.3984 1267.6953 2941.5 1260.1953 2941.5 Z" fill="#007dcc"/>
<path d="M1314.0938 2926.6953 1298.6953 2926.6953 1298.6953 2935.0938 1316.7969 2935.0938 1316.7969 2941.5 1291.1953 2941.5 1291.1953 2905 1298.6953 2905 1298.6953 2920.2969 1314.0938 2920.2969 1314.0938 2926.6953 Z" fill="#007dcc"/>
<path d="M1340.1953 2911.3984 C1338 2909.3984 1326.3984 2908.7969 1326.3984 2916.1953 L1319.2969 2916.1953 C1319.2969 2909.3984 1322.2969 2907.5938 1325.7969 2905.5 1333.0938 2902.7969 1343.6953 2903.7969 1347.2969 2909.3984 1350.5938 2913.8984 1349.5938 2920.1953 1347.1953 2922.5938 1341.5938 2927.6953 1334.8984 2925.3984 1329.0938 2928.3984 1326.5938 2929.2969 1325.5938 2933.2969 1329.3984 2935.5 1336.2969 2938.1953 1341.7969 2934.6953 1341.7969 2930.2969 L1348.3984 2930.2969 C1348.3984 2933.5 1347.8984 2938.5938 1342.5938 2940.8984 1338.1953 2943 1329.2969 2943.2969 1324.1953 2939.6953 1320.5 2937.3984 1318 2927.6953 1323.2969 2923.7969 1327.8984 2920.1953 1336.0938 2921.2969 1339.6953 2918.8984 1342.3984 2917.8984 1343.6953 2913.5938 1340.1953 2911.3984 Z" fill="#007dcc"/>
<path d="M1372.8984 2935.0938 1362.6953 2935.0938 1362.6953 2925.5938 1371.8984 2925.5938 C1379.2969 2925.5938 1379.7969 2935.0938 1372.8984 2935.0938 Z M1381.5 2924.0938 C1385.5 2927.0938 1386.0938 2936 1381.5 2939.3984 1379.7969 2940.7969 1376.0938 2941.5 1372.8984 2941.5 L1355.1953 2941.5 1355.1953 2905 1362.6953 2905 1362.6953 2919.1953 1369.1953 2919.1953 C1376.5938 2919.1953 1375.7969 2915.8984 1375.7969 2912.3984 1375.7969 2909.8984 1375.5938 2906.0938 1376.7969 2905 L1385.0938 2905 1385.0938 2906.2969 C1381.1953 2907.3984 1386.1953 2919.7969 1379.1953 2922.5 1380 2922.8984 1380.7969 2923.3984 1381.5 2924.0938 Z" fill="#007dcc"/>
<path d="M1414 2913.5 C1413.8984 2910 1411.7969 2904.0938 1402.1953 2904.0938 1399.1953 2904.0938 1389.5 2904.7969 1389.5 2913.3984 L1396.1953 2913.3984 C1396.7969 2910.7969 1399.6953 2909.5 1402.5 2909.5 1404.5 2909.3984 1407.2969 2910.3984 1407.2969 2912.2969 1407.1953 2917.2969 1390.2969 2913.7969 1390.2969 2923.5 1390.2969 2929.1953 1395.2969 2932.8984 1402.0938 2932.8984 1408 2932.8984 1413.5 2930.0938 1413.5 2923.2969 L1407.0938 2923.2969 C1407.0938 2925.3984 1405.5938 2927.3984 1402 2927.3984 1399.8984 2927.3984 1397.0938 2926.5938 1397.0938 2924.7969 1396.8984 2920.5 1414 2923.8984 1414 2913.5 Z" fill="#007dcc"/>
</g>
<circle cx="1842.4453" cy="2409.3359" r="62.0078" fill="#ff0000"/>
<g>
<path d="M1846.4531 2434.0938 C1852.7578 2434.0938 1857.0938 2432.8359 1859.4766 2430.4531 1865.4922 2424.5781 1864.6563 2410.0156 1858.7734 2404.6953 1855.2734 2401.8984 1851.4922 2400.9141 1846.4531 2400.9141 L1834.9766 2400.9141 1834.9766 2383 1824.4766 2383 1824.4766 2434.0938 1846.4531 2434.0938 Z M1844.2188 2425.1328 C1856.8125 2425.1328 1857.5156 2409.875 1844.2188 2409.875 L1834.9766 2409.875 1834.9766 2425.1328 1844.2188 2425.1328 Z" fill="#ffffff"/>
</g>
<circle cx="2497.9297" cy="3472.2891" r="62.0078" fill="#ff0000"/>
<g>
<path d="M2509.9922 3457.3359 C2512.2344 3459.7188 2512.9375 3461.1172 2513.2188 3464.1953 L2522.875 3464.1953 C2522.5938 3460.6953 2520.9141 3455.2344 2517.4141 3451.5938 2508.4531 3442.2188 2494.5938 3443.1953 2486.0547 3450.4766 2475.9766 3459.0156 2475.2734 3481.2734 2485.7734 3491.6328 2494.5938 3500.4531 2509.1563 3500.3125 2517.1328 3492.6172 2520.9141 3488.6953 2522.7344 3484.2188 2523.0156 3479.1797 L2513.3594 3479.1797 C2513.3594 3480.9922 2512.6563 3483.2344 2510.5547 3485.6172 2506.7734 3489.8125 2498.375 3490.7969 2492.7734 3485.4766 2487.3125 3480.4375 2486.1953 3466.4375 2491.7969 3458.5938 2496.2734 3452.1563 2505.9375 3453.2734 2509.9922 3457.3359 Z" fill="#ffffff"/>
</g>
<circle cx="1337.5469" cy="2816.7969" r="62.0078" fill="#ff0000"/>
<g>
<path d="M1319.4766 2842.0938 1319.4766 2791 1354.4766 2791 1354.4766 2799.9531 1329.9766 2799.9531 1329.9766 2842.0938 1319.4766 2842.0938 Z" fill="#ffffff"/>
</g>
<circle cx="2001.8906" cy="3463.4297" r="62.0078" fill="#ff0000"/>
<g>
<path d="M1977.0391 3494.0938 1966.6797 3494.0938 1984.0391 3443 1992.9922 3443 2010.3594 3494.0938 1999.9922 3494.0938 1988.5156 3454.4766 1977.0391 3494.0938 Z" fill="#ffffff"/>
</g>
<g>
<path d="M2013.5938 3438.5938 2009.6953 3428 2004.8984 3428 2018.3984 3464.5 2023.1953 3464.5 2036.6953 3428 2031.8984 3428 2028 3438.5938 2013.5938 3438.5938 Z M2026.3984 3442.7969 2020.7969 3458 2015.1953 3442.7969 2026.3984 3442.7969 Z" fill="#ffffff"/>
</g>
<circle cx="2037.3203" cy="1284.3828" r="62.0078" fill="#ff0000"/>
<g>
<path d="M2012.0391 1315.0938 2001.6797 1315.0938 2019.0391 1264 2027.9922 1264 2045.3594 1315.0938 2034.9922 1315.0938 2023.5156 1275.4766 2012.0391 1315.0938 Z" fill="#ffffff"/>
</g>
<g>
<path d="M2058.8984 1268.6953 2048.2969 1268.6953 2048.2969 1280.2969 2057.5 1280.2969 C2062.1953 1280.2969 2064.5938 1277.3984 2064.5938 1274.2969 2064.5938 1270 2061.2969 1268.6953 2058.8984 1268.6953 Z M2065.0938 1267.1953 C2067 1267.7969 2069.3984 1271.0938 2069.3984 1275.0938 2069.3984 1281 2065.7969 1284.5 2057.5 1284.5 L2043.5938 1284.5 2043.5938 1248 2060.1953 1248 C2069.7969 1248 2070.7969 1256.3984 2070.7969 1258.5938 2070.7969 1264.0938 2066.7969 1266.3984 2065.0938 1267.1953 Z M2057.5 1252.1953 2048.2969 1252.1953 2048.2969 1264.5 2059.3984 1264.5 C2063.5938 1264.5938 2066.0938 1262.5 2066.0938 1258.5938 2066.0938 1251.1953 2058.6953 1252.1953 2057.5 1252.1953 Z" fill="#ffffff"/>
</g>
</g>
</svg>
